<?xml version="1.0" encoding="utf-8"?>
<!-- Generator: Adobe Illustrator 15.0.0, SVG Export Plug-In . SVG Version: 6.00 Build 0)  -->
<!DOCTYPE svg PUBLIC "-//W3C//DTD SVG 1.1//EN" "http://www.w3.org/Graphics/SVG/1.1/DTD/svg11.dtd">
<svg version="1.1" id="Layer_1" xmlns="http://www.w3.org/2000/svg" xmlns:xlink="http://www.w3.org/1999/xlink" x="0px" y="0px"
	 width="270px" height="270px" viewBox="0 0 270 270" enable-background="new 0 0 270 270" xml:space="preserve">
<g>
	<path fill-rule="evenodd" clip-rule="evenodd" fill="#455980" d="M132.915,10c6.422,0,12.817,0,19.213,0
		c-0.224,7.72,1.905,13.117,1.682,20.837c4.178,3.321,11.258,3.779,16.751,5.825c6.216-3.757,8.566-11.448,14.2-15.82
		c5.938,1.838,10.333,5.239,15.883,7.497c-2.118,6.255-3.588,13.113-5.854,19.165c2.911,6.001,9.526,8.282,13.39,13.341
		c6.416-3.307,12.345-7.1,19.188-10.016c2.892,5.196,7.944,8.233,10.083,14.166c-4.58,4.917-8.726,10.216-12.576,15.844
		c2.427,5.638,5.624,10.5,8.349,15.84c6.815-0.452,13.297-1.245,20.923-0.83c0.182,5.947,2.896,9.344,3.364,14.996
		c-4.112,5.366-12.164,6.784-17.564,10.823c-0.496,5.966,0.739,14.021,0,17.516c6.14,3.322,12.262,6.638,20.055,8.341
		c0,1.933,0,3.856,0,5.829c-3.677,1.602-1.9,8.667-4.176,11.646c-6.851-0.145-13.401-0.014-19.241,0.869
		c-3.175,4.309-4.426,10.563-6.666,15.816c2.813,6.871,9.311,10.167,13.388,15.82c-2.5,5.089-5.775,9.303-9.217,13.344
		c-7.131-1.226-11.734-4.97-18.428-6.649c-5.758,3.071-8.789,9-13.336,13.3c2.533,5.778,3.759,12.93,6.67,18.336
		c-4.674,3.394-9.351,6.782-15.072,9.171c-4.15-5.024-9.204-9.084-13.332-14.166c-6.746,1.074-11.225,4.385-17.566,5.824
		c-0.949,6.559-1.406,13.614-1.677,20.856c-3.354,0.835-8.847-0.503-10.032,2.479c-2.492,0-5.04,0-7.535,0
		c-0.547-7.743-4.667-11.973-5.851-19.17c-6.479,0.106-11.376-1.411-18.405-0.819c-3.811,5.384-6.342,12.021-10.026,17.51
		c-6.257-0.436-10.03-3.345-15.884-4.17c-0.616-7.569,0.965-12.917,0.84-19.992c-3.914-3.882-10.217-5.399-15.068-8.344
		c-7.386,2.621-11.37,8.662-18.377,11.649c-3.28-4.232-8.682-6.337-11.708-10.823c2.217-6.379,5.66-11.564,8.348-17.476
		c-2.765-5.586-6.589-10.118-10.867-14.167c-7.605,0.436-13.054,3.068-20.057,4.136c-2.048-5.43-4.543-10.435-7.536-14.995
		c5.339-4.419,11.11-8.378,16.723-12.474c-1.845-5.952-3.455-12.145-5.015-18.34c-7.805-0.278-13.093-3.068-20.896-3.35
		c0-5.821,0-11.666,0-17.488c7.343-0.742,12.796-3.377,20.056-4.173c0.227-6.719,1.221-12.683,2.52-18.342
		c-5.385-4.345-11.799-7.7-16.722-12.493c2.699-4.539,3.621-10.856,6.695-14.995c6.948,0.571,12.268,2.735,19.216,3.325
		c4.497-4.421,7.783-10.044,10.869-15.84c-3.908-5.271-7.456-10.899-10.869-16.667c4.246-4.377,7.759-9.493,13.389-12.495
		c4.284,4.612,10.297,7.499,15.043,11.669c6.209-2.712,12.156-5.671,15.882-10.842c-1.539-5.939-1.768-13.229-3.333-19.167
		c5.36-2.148,10.357-4.685,16.722-5.823c5.906,3.45,5.43,14.51,12.549,16.667c4.446,1.338,9.104-2.185,15.882-1.674
		C130.024,24.365,132.156,17.854,132.915,10z M58.488,128.339c-4.219,45.333,27.329,80.459,65.237,85.025
		c37.115,4.448,66.524-14.6,80.279-40.023c31.82-59.048-18.95-120.709-80.279-112.496C89.462,65.428,61.862,92.366,58.488,128.339z"
		/>
	<path fill-rule="evenodd" clip-rule="evenodd" fill="#455980" d="M129.578,73.34c38.805-3.941,70.198,25.773,70.198,63.343
		c0,61.521-73.805,81.807-110.337,45.001c-13.757-13.857-24.061-39.312-15.069-65.84C81.506,94.893,102.146,76.123,129.578,73.34z"
		/>
	<path fill-rule="evenodd" clip-rule="evenodd" fill="#455980" d="M130.393,107.5c22.021-3.891,40.433,11.614,35.937,35.855
		c-4.968,27.174-46.061,31.446-57.672,6.65C99.478,130.423,111.453,110.869,130.393,107.5z"/>
</g>
</svg>
